<svg xmlns="http://www.w3.org/2000/svg" version="1.1" xmlns:xlink="http://www.w3.org/1999/xlink" width="1000" height="1000"><g clip-path="url(#SvgjsClipPath1017)"><rect width="1000" height="1000" fill="#ffffff"></rect><g transform="matrix(29.166666666666668,0,0,29.166666666666668,150,150)"><svg xmlns="http://www.w3.org/2000/svg" version="1.1" xmlns:xlink="http://www.w3.org/1999/xlink" width="24" height="24"><svg xmlns="http://www.w3.org/2000/svg" viewBox="0 0 24 24" id="arrow"><path fill="#171616" d="M9.71,6.29a1,1,0,0,0-1.42,0l-5,5a1,1,0,0,0,0,1.42l5,5a1,1,0,0,0,1.42,0,1,1,0,0,0,0-1.42L5.41,12l4.3-4.29A1,1,0,0,0,9.71,6.29Zm11,5-5-5a1,1,0,0,0-1.42,1.42L18.59,12l-4.3,4.29a1,1,0,0,0,0,1.42,1,1,0,0,0,1.42,0l5-5A1,1,0,0,0,20.71,11.29Z"></path></svg></svg></g></g><defs><clipPath id="SvgjsClipPath1017"><rect width="1000" height="1000" x="0" y="0" rx="350" ry="350"></rect></clipPath></defs></svg>